<svg width="162" height="40" viewBox="0 0 162 40" fill="none" xmlns="http://www.w3.org/2000/svg">
<g opacity="0.9">
<path d="M22.7945 12.1547C22.5205 12.85 19.8342 19.6831 19.8342 19.6831C19.8342 19.6831 17.1491 12.8512 16.8751 12.1547C16.5045 11.2268 15.6054 10.5686 14.5546 10.5686C13.3227 10.5686 12.3013 11.4681 12.0909 12.6508C11.9478 13.7235 10.1936 26.505 10.1973 27.0073C10.1973 28.174 11.1319 29.118 12.2842 29.118C13.3129 29.118 14.1949 28.3212 14.3381 27.3723C14.4812 26.4234 15.3742 19.5037 15.3742 19.5037C15.3742 19.5037 17.5027 25.0031 17.8709 25.9495C17.8953 26.0139 17.9161 26.0671 17.9161 26.0671C18.1926 26.7797 18.9743 27.3513 19.8367 27.3513C20.7003 27.3513 21.4832 26.7797 21.7572 26.0671C21.9236 25.6377 24.2992 19.5037 24.2992 19.5037C24.2992 19.5037 25.1909 26.4234 25.3353 27.3723C25.4772 28.3212 26.3592 29.118 27.3879 29.118C28.5402 29.118 29.4748 28.1728 29.4748 27.0073C29.4761 26.505 27.7231 13.7222 27.58 12.6508C27.3696 11.4681 26.3481 10.5686 25.1175 10.5686C24.0643 10.5686 23.1652 11.2256 22.7945 12.1547Z" fill="#FDB913"/>
<path d="M21.7557 26.0692L21.8083 25.9343C21.7802 26.0048 21.7557 26.0692 21.7557 26.0692Z" fill="#FDB913"/>
<path d="M19.8341 39.202C30.2331 39.202 38.6615 30.6776 38.6615 20.1614C38.6615 18.2932 38.3899 16.4906 37.8945 14.7858C37.6547 13.8875 36.8461 13.2269 35.881 13.2269C34.7287 13.2269 33.7953 14.1721 33.7953 15.3376C33.7953 15.5776 33.8369 15.8064 33.9091 16.0217C34.2871 17.3356 34.4926 18.7238 34.4926 20.1626C34.4926 28.3492 27.9297 34.988 19.8329 34.988C11.7385 34.988 5.17563 28.3492 5.17563 20.1626C5.17563 11.9736 11.7385 5.33724 19.8329 5.33724C21.2617 5.33724 22.6378 5.54633 23.9431 5.9311V5.92862C24.129 5.98429 24.326 6.01522 24.529 6.01522C25.6826 6.01522 26.6171 5.07124 26.6171 3.90456C26.6171 2.8752 25.8881 2.01906 24.9229 1.83348C23.3045 1.37324 21.5981 1.12085 19.8329 1.12085C9.43506 1.12085 1.00671 9.64765 1.00671 20.1626C1.00671 30.6776 9.43628 39.202 19.8341 39.202Z" fill="#FDB913"/>
<path d="M30.7054 5.502C30.8914 5.69005 30.8914 5.99193 30.7054 6.17875L28.8289 8.07909C28.0142 8.90431 28.0154 10.2393 28.8301 11.0645C29.6448 11.8884 30.9648 11.8897 31.7807 11.0645L33.6584 9.16536C33.8431 8.97854 34.1428 8.97854 34.3275 9.16536L36.2053 11.0645C37.02 11.8884 38.3423 11.8884 39.157 11.0645C39.9717 10.2405 39.9729 8.90431 39.157 8.08033L37.2805 6.17999C37.0946 5.99317 37.0946 5.68882 37.2805 5.50324L39.1582 3.60413C39.9729 2.78015 39.9705 1.4415 39.1558 0.619994C38.3423 -0.203984 37.02 -0.206458 36.2053 0.617519L34.3275 2.51663C34.1428 2.70344 33.8431 2.70468 33.6584 2.51663L31.7807 0.617519C30.9648 -0.206458 29.6436 -0.205221 28.8289 0.617519C28.0142 1.4415 28.0142 2.77891 28.8289 3.60289L30.7054 5.502Z" fill="#FDB913"/>
<path d="M65.9246 13.3873C65.7913 12.4709 65.1521 11.929 64.2097 11.929H63.1665C62.3473 11.929 61.7974 12.3005 61.4856 13.0657L58.5617 20.7083L55.6379 13.0759C55.3247 12.2991 54.7762 11.9275 53.9541 11.9275H52.9124C51.9728 11.9275 51.3307 12.4679 51.1975 13.377L49.3593 27.5623C49.3309 27.7386 49.3309 27.8649 49.3309 27.9398C49.3309 28.8018 49.9715 29.4275 50.8531 29.4275H51.5391C52.3937 29.4275 53.0258 28.8753 53.1477 28.0191L54.2022 19.7993L56.6101 26.1657C56.7448 26.5461 57.1402 27.2011 58.2301 27.2011H58.8948C59.9861 27.2011 60.3801 26.5446 60.519 26.1525L62.9228 19.7948L63.9758 28.0117C64.1005 28.8753 64.7312 29.4275 65.5844 29.4275H66.2718C67.1534 29.4275 67.7926 28.8018 67.7926 27.9398C67.7926 27.8634 67.7926 27.7386 67.7656 27.5623L65.9246 13.3873Z" fill="#FDB913"/>
<path d="M78.022 11.9275C75.3187 11.9275 73.0619 12.8626 71.4914 14.635C70.0711 16.2382 69.2894 18.4716 69.2894 20.9268C69.2894 23.3556 70.0725 25.5818 71.4914 27.1923C73.0691 28.9807 75.3274 29.9275 78.022 29.9275C80.7339 29.9275 82.9994 28.9822 84.57 27.1908C85.9787 25.5861 86.7531 23.3615 86.7531 20.9268C86.7531 18.4658 85.9772 16.2324 84.5685 14.635C83.0052 12.864 80.7397 11.9275 78.022 11.9275ZM78.022 26.4483C75.1829 26.4483 73.2757 24.2295 73.2757 20.9268C73.2757 17.6518 75.1829 15.4505 78.022 15.4505C80.9044 15.4505 82.7683 17.6007 82.7683 20.9268C82.7683 24.282 80.9044 26.4483 78.022 26.4483Z" fill="#FDB913"/>
<path d="M98.7288 25.8799H92.4609L99.819 14.873C100.055 14.5103 100.156 14.2049 100.156 13.8731C100.156 13.7248 100.128 13.4223 99.9375 13.0596L99.7852 12.7659L99.7795 12.7512L99.7697 12.7366C99.3423 12.02 98.7767 11.9275 98.3325 11.9275H89.4948C88.6006 11.9275 88.0011 12.5339 88.0011 13.437V13.9641C88.0011 14.8818 88.5865 15.4751 89.4948 15.4751H94.9291L87.5893 26.479C87.3537 26.8446 87.2522 27.15 87.2522 27.4804C87.2522 27.6273 87.2804 27.9283 87.4694 28.2924L87.6245 28.5905L87.633 28.6037L87.6401 28.6169C88.0674 29.335 88.633 29.4275 89.0787 29.4275H98.7316C99.6385 29.4275 100.225 28.8343 100.225 27.918V27.3923C100.222 26.4863 99.623 25.8799 98.7288 25.8799Z" fill="#FDB913"/>
<path d="M113.203 25.8799H106.931L114.293 14.873C114.527 14.5074 114.629 14.202 114.629 13.8731C114.629 13.7248 114.601 13.4223 114.409 13.0596L114.258 12.7659L114.251 12.7512L114.242 12.738C113.818 12.02 113.251 11.9275 112.805 11.9275H103.967C103.072 11.9275 102.473 12.5339 102.473 13.437V13.9641C102.473 14.8818 103.058 15.4751 103.967 15.4751H109.401L102.059 26.479C101.825 26.8417 101.722 27.1471 101.722 27.4804C101.722 27.6287 101.752 27.9297 101.941 28.2939L102.095 28.5905L102.102 28.6037L102.11 28.6169C102.538 29.335 103.102 29.4275 103.546 29.4275H113.203C114.11 29.4275 114.695 28.8343 114.695 27.918V27.3923C114.695 26.4863 114.097 25.8799 113.203 25.8799Z" fill="#FDB913"/>
<path d="M131.042 27.3863L131.038 27.376L125.713 13.0333C125.425 12.3064 124.861 11.9275 124.073 11.9275H123.279C122.283 11.9275 121.839 12.5237 121.644 13.023L116.315 27.376L116.311 27.3907L116.305 27.4068L116.301 27.4215C116.253 27.5772 116.192 27.7696 116.192 28.0339C116.192 28.868 116.768 29.4275 117.622 29.4275H118.439C119.205 29.4275 119.713 29.0559 119.991 28.2953L120.987 25.5947H126.344L127.362 28.2982C127.642 29.0574 128.149 29.4275 128.913 29.4275H129.73C130.587 29.4275 131.161 28.868 131.161 28.0339C131.161 27.7549 131.096 27.5493 131.045 27.3995L131.042 27.3863ZM122.324 22.0468L123.677 18.4432L125.029 22.0468H122.324Z" fill="#FDB913"/>
<path d="M142.574 22.9847L142.568 22.9759L142.562 22.9685C142.519 22.9068 142.469 22.8422 142.417 22.7747C144.401 21.7466 145.559 19.8859 145.559 17.6595C145.559 13.8558 143.095 11.9275 138.234 11.9275H134.427C133.385 11.9275 132.658 12.6324 132.658 13.6428V27.8957C132.658 28.7974 133.318 29.4275 134.265 29.4275H135.083C136.028 29.4275 136.687 28.7974 136.687 27.8957V23.5751H138.196C138.402 23.763 138.625 24.0347 138.942 24.4812L141.667 28.5845C142.035 29.1426 142.575 29.4275 143.278 29.4275H144.093C144.984 29.4275 145.631 28.8312 145.631 28.0088C145.631 27.7298 145.499 27.3758 145.28 27.0615L142.574 22.9847ZM138.792 20.0519H136.686V15.4757H138.139C141.483 15.4757 141.483 17.05 141.483 17.5684C141.483 19.8727 139.424 20.0519 138.792 20.0519Z" fill="#FDB913"/>
<path d="M158.508 11.9275H147.722C146.83 11.9275 146.13 12.6001 146.13 13.4593V13.941C146.13 14.7869 146.844 15.4742 147.722 15.4742H151.19V27.8957C151.19 28.7974 151.817 29.4275 152.718 29.4275H153.493C154.392 29.4275 155.018 28.7974 155.018 27.8957V15.4742H158.508C159.415 15.4742 160.101 14.8148 160.101 13.941V13.4593C160.101 12.5869 159.416 11.9275 158.508 11.9275Z" fill="#FDB913"/>
</g>
</svg>
